<svg xmlns="http://www.w3.org/2000/svg" xmlns:xlink="http://www.w3.org/1999/xlink" width="150" zoomAndPan="magnify" viewBox="0 0 112.5 37.5" height="50" preserveAspectRatio="xMidYMid meet" version="1.0"><defs><g/><clipPath id="71aecbee44"><path d="M 0.492188 36 L 25 36 L 25 37.007812 L 0.492188 37.007812 Z M 0.492188 36 " clip-rule="nonzero"/></clipPath><clipPath id="af60903efa"><path d="M 87 0 L 111.511719 0 L 111.511719 1 L 87 1 Z M 87 0 " clip-rule="nonzero"/></clipPath></defs><g fill="#ffffff" fill-opacity="1"><g transform="translate(1.601864, 23.927296)"><g><path d="M 2.578125 -1.453125 C 1.222656 -2.660156 0.546875 -4.210938 0.546875 -6.109375 C 0.546875 -8.003906 1.253906 -9.554688 2.671875 -10.765625 C 4.085938 -11.984375 5.835938 -12.59375 7.921875 -12.59375 C 9.972656 -12.59375 11.703125 -11.976562 13.109375 -10.75 C 14.515625 -9.53125 15.21875 -7.984375 15.21875 -6.109375 C 15.21875 -4.234375 14.53125 -2.6875 13.15625 -1.46875 C 11.78125 -0.25 10.035156 0.359375 7.921875 0.359375 C 5.722656 0.359375 3.941406 -0.242188 2.578125 -1.453125 Z M 5.859375 -8.1875 C 5.304688 -7.644531 5.03125 -6.953125 5.03125 -6.109375 C 5.03125 -5.265625 5.289062 -4.578125 5.8125 -4.046875 C 6.34375 -3.515625 7.035156 -3.25 7.890625 -3.25 C 8.722656 -3.25 9.40625 -3.519531 9.9375 -4.0625 C 10.46875 -4.601562 10.734375 -5.285156 10.734375 -6.109375 C 10.734375 -6.953125 10.457031 -7.644531 9.90625 -8.1875 C 9.363281 -8.726562 8.691406 -9 7.890625 -9 C 7.085938 -9 6.410156 -8.726562 5.859375 -8.1875 Z M 5.859375 -8.1875 "/></g></g></g><g fill="#ffffff" fill-opacity="1"><g transform="translate(15.343574, 23.927296)"><g><path d="M 1.4375 0 L 1.4375 -12.234375 L 5.65625 -12.234375 L 5.65625 -10.953125 L 5.703125 -10.953125 C 6.796875 -12.046875 7.960938 -12.59375 9.203125 -12.59375 C 9.804688 -12.59375 10.40625 -12.515625 11 -12.359375 C 11.601562 -12.203125 12.175781 -11.957031 12.71875 -11.625 C 13.269531 -11.289062 13.71875 -10.816406 14.0625 -10.203125 C 14.40625 -9.585938 14.578125 -8.875 14.578125 -8.0625 L 14.578125 0 L 10.359375 0 L 10.359375 -6.921875 C 10.359375 -7.554688 10.15625 -8.113281 9.75 -8.59375 C 9.34375 -9.070312 8.8125 -9.3125 8.15625 -9.3125 C 7.519531 -9.3125 6.941406 -9.0625 6.421875 -8.5625 C 5.910156 -8.070312 5.65625 -7.523438 5.65625 -6.921875 L 5.65625 0 Z M 1.4375 0 "/></g></g></g><g fill="#ffffff" fill-opacity="1"><g transform="translate(29.085285, 23.927296)"><g><path d="M 1.4375 0 L 1.4375 -20.515625 L 5.65625 -20.515625 L 5.65625 0 Z M 1.4375 0 "/></g></g></g><g fill="#ffffff" fill-opacity="1"><g transform="translate(34.142623, 23.927296)"><g><path d="M 10.71875 -12.234375 L 15.578125 -12.234375 L 5.96875 6.203125 L 1.09375 6.203125 L 5.328125 -1.90625 L -0.484375 -12.234375 L 4.390625 -12.234375 L 7.796875 -5.96875 Z M 10.71875 -12.234375 "/></g></g></g><g fill="#ffffff" fill-opacity="1"><g transform="translate(47.216306, 23.927296)"><g><path d="M 1.4375 -19.6875 L 7.546875 -19.6875 C 9.390625 -19.6875 10.859375 -19.289062 11.953125 -18.5 C 13.046875 -17.71875 13.59375 -16.441406 13.59375 -14.671875 C 13.59375 -12.703125 12.773438 -11.296875 11.140625 -10.453125 C 13.941406 -9.953125 15.34375 -8.296875 15.34375 -5.484375 C 15.34375 -3.828125 14.769531 -2.5 13.625 -1.5 C 12.476562 -0.5 10.90625 0 8.90625 0 L 1.4375 0 Z M 5.921875 -11.984375 L 6.28125 -11.984375 C 7.28125 -11.984375 8.023438 -12.15625 8.515625 -12.5 C 9.003906 -12.851562 9.25 -13.425781 9.25 -14.21875 C 9.25 -15.550781 8.257812 -16.21875 6.28125 -16.21875 L 5.921875 -16.21875 Z M 5.921875 -3.453125 L 7.328125 -3.453125 C 9.523438 -3.453125 10.625 -4.1875 10.625 -5.65625 C 10.625 -6.53125 10.347656 -7.15625 9.796875 -7.53125 C 9.242188 -7.914062 8.421875 -8.109375 7.328125 -8.109375 L 5.921875 -8.109375 Z M 5.921875 -3.453125 "/></g></g></g><g fill="#ffffff" fill-opacity="1"><g transform="translate(61.077306, 23.927296)"><g><path d="M 1.4375 0 L 1.4375 -20.515625 L 5.65625 -20.515625 L 5.65625 0 Z M 1.4375 0 "/></g></g></g><g fill="#ffffff" fill-opacity="1"><g transform="translate(66.134643, 23.927296)"><g><path d="M 1.828125 -19.0625 C 2.328125 -19.550781 2.914062 -19.796875 3.59375 -19.796875 C 4.28125 -19.796875 4.867188 -19.550781 5.359375 -19.0625 C 5.859375 -18.570312 6.109375 -17.984375 6.109375 -17.296875 C 6.109375 -16.609375 5.859375 -16.019531 5.359375 -15.53125 C 4.867188 -15.039062 4.28125 -14.796875 3.59375 -14.796875 C 2.914062 -14.796875 2.328125 -15.039062 1.828125 -15.53125 C 1.335938 -16.019531 1.09375 -16.609375 1.09375 -17.296875 C 1.09375 -17.984375 1.335938 -18.570312 1.828125 -19.0625 Z M 1.4375 -12.234375 L 1.4375 0 L 5.65625 0 L 5.65625 -12.234375 Z M 1.4375 -12.234375 "/></g></g></g><g fill="#ffffff" fill-opacity="1"><g transform="translate(71.311276, 23.927296)"><g><path d="M 1.4375 0 L 1.4375 -12.234375 L 5.65625 -12.234375 L 5.65625 -10.953125 L 5.703125 -10.953125 C 6.796875 -12.046875 7.960938 -12.59375 9.203125 -12.59375 C 9.804688 -12.59375 10.40625 -12.515625 11 -12.359375 C 11.601562 -12.203125 12.175781 -11.957031 12.71875 -11.625 C 13.269531 -11.289062 13.71875 -10.816406 14.0625 -10.203125 C 14.40625 -9.585938 14.578125 -8.875 14.578125 -8.0625 L 14.578125 0 L 10.359375 0 L 10.359375 -6.921875 C 10.359375 -7.554688 10.15625 -8.113281 9.75 -8.59375 C 9.34375 -9.070312 8.8125 -9.3125 8.15625 -9.3125 C 7.519531 -9.3125 6.941406 -9.0625 6.421875 -8.5625 C 5.910156 -8.070312 5.65625 -7.523438 5.65625 -6.921875 L 5.65625 0 Z M 1.4375 0 "/></g></g></g><g fill="#ffffff" fill-opacity="1"><g transform="translate(85.052987, 23.927296)"><g><path d="M 15.40625 -12.234375 L 9.59375 -6.390625 L 15.984375 0 L 10.546875 0 L 5.65625 -4.890625 L 5.65625 0 L 1.4375 0 L 1.4375 -20.515625 L 5.65625 -20.515625 L 5.65625 -7.96875 L 9.921875 -12.234375 Z M 15.40625 -12.234375 "/></g></g></g><g fill="#ffffff" fill-opacity="1"><g transform="translate(98.436824, 23.927296)"><g><path d="M 6.75 -12.59375 C 7.445312 -12.59375 8.140625 -12.515625 8.828125 -12.359375 C 9.515625 -12.203125 10.023438 -12.039062 10.359375 -11.875 L 10.859375 -11.640625 L 9.46875 -8.875 C 8.519531 -9.382812 7.613281 -9.640625 6.75 -9.640625 C 6.269531 -9.640625 5.929688 -9.585938 5.734375 -9.484375 C 5.535156 -9.378906 5.4375 -9.1875 5.4375 -8.90625 C 5.4375 -8.832031 5.441406 -8.765625 5.453125 -8.703125 C 5.472656 -8.640625 5.503906 -8.582031 5.546875 -8.53125 C 5.597656 -8.476562 5.644531 -8.429688 5.6875 -8.390625 C 5.726562 -8.347656 5.796875 -8.300781 5.890625 -8.25 C 5.984375 -8.207031 6.054688 -8.171875 6.109375 -8.140625 C 6.171875 -8.117188 6.265625 -8.082031 6.390625 -8.03125 C 6.515625 -7.988281 6.609375 -7.953125 6.671875 -7.921875 C 6.742188 -7.898438 6.851562 -7.863281 7 -7.8125 C 7.15625 -7.769531 7.269531 -7.742188 7.34375 -7.734375 C 7.84375 -7.585938 8.273438 -7.425781 8.640625 -7.25 C 9.003906 -7.070312 9.390625 -6.832031 9.796875 -6.53125 C 10.203125 -6.226562 10.515625 -5.847656 10.734375 -5.390625 C 10.960938 -4.929688 11.078125 -4.40625 11.078125 -3.8125 C 11.078125 -1.03125 9.140625 0.359375 5.265625 0.359375 C 4.390625 0.359375 3.554688 0.222656 2.765625 -0.046875 C 1.984375 -0.316406 1.421875 -0.585938 1.078125 -0.859375 L 0.546875 -1.28125 L 2.265625 -4.171875 C 2.390625 -4.066406 2.554688 -3.9375 2.765625 -3.78125 C 2.972656 -3.632812 3.347656 -3.425781 3.890625 -3.15625 C 4.429688 -2.894531 4.898438 -2.765625 5.296875 -2.765625 C 6.171875 -2.765625 6.609375 -3.0625 6.609375 -3.65625 C 6.609375 -3.925781 6.492188 -4.132812 6.265625 -4.28125 C 6.046875 -4.4375 5.671875 -4.609375 5.140625 -4.796875 C 4.609375 -4.984375 4.191406 -5.160156 3.890625 -5.328125 C 3.128906 -5.722656 2.523438 -6.171875 2.078125 -6.671875 C 1.628906 -7.171875 1.40625 -7.832031 1.40625 -8.65625 C 1.40625 -9.894531 1.882812 -10.859375 2.84375 -11.546875 C 3.8125 -12.242188 5.113281 -12.59375 6.75 -12.59375 Z M 6.75 -12.59375 "/></g></g></g><g clip-path="url(#71aecbee44)"><path stroke-linecap="butt" transform="matrix(0.334125, 0, 0, 0.334125, -5.518866, 36.578643)" fill="none" stroke-linejoin="miter" d="M -0.00199177 5.002187 L 84.430225 5.002187 " stroke="#ffffff" stroke-width="10" stroke-opacity="1" stroke-miterlimit="4"/></g><g clip-path="url(#af60903efa)"><path stroke-linecap="butt" transform="matrix(-0.334125, 0, 0, -0.334125, 117.521683, 0.427937)" fill="none" stroke-linejoin="miter" d="M -0.00525018 4.998499 L 84.438657 4.998499 " stroke="#ffffff" stroke-width="10" stroke-opacity="1" stroke-miterlimit="4"/></g></svg>